REM DIRINDEX 1\2,1\3,1\4,1\5
REM DIRNAME "folder01","folder02","folder03","folder04","folder05"
TITLE ""
FILE "P1Q_t_0549-0558.mp3" MP3
  TRACK 01 AUDIO
    TITLE "3:cjc173_2580"
    INDEX 01 00:00:00
  TRACK 02 AUDIO
    TITLE "0:"
    INDEX 01 00:01:27
  TRACK 03 AUDIO
    TITLE "4:cjc173_2581"
    INDEX 01 00:01:49
  TRACK 04 AUDIO
    TITLE "0:"
    INDEX 01 00:04:47
  TRACK 05 AUDIO
    TITLE "5:cjc173_2582"
    INDEX 01 00:04:67
  TRACK 06 AUDIO
    TITLE "0:"
    INDEX 01 00:10:09
  TRACK 07 AUDIO
    TITLE "3:cjc173_2583"
    INDEX 01 00:10:54
  TRACK 08 AUDIO
    TITLE "0:"
    INDEX 01 00:11:65
  TRACK 09 AUDIO
    TITLE "4:cjc173_2584"
    INDEX 01 00:12:15
  TRACK 10 AUDIO
    TITLE "0:"
    INDEX 01 00:15:53
  TRACK 11 AUDIO
    TITLE "5:cjc173_2585"
    INDEX 01 00:15:69
  TRACK 12 AUDIO
    TITLE "0:"
    INDEX 01 00:20:38
  TRACK 13 AUDIO
    TITLE "3:cjc173_2586"
    INDEX 01 00:21:10
  TRACK 14 AUDIO
    TITLE "0:"
    INDEX 01 00:22:51
  TRACK 15 AUDIO
    TITLE "4:cjc173_2587"
    INDEX 01 00:23:00
  TRACK 16 AUDIO
    TITLE "0:"
    INDEX 01 00:25:51
  TRACK 17 AUDIO
    TITLE "5:cjc173_2588"
    INDEX 01 00:25:71
  TRACK 18 AUDIO
    TITLE "0:"
    INDEX 01 00:30:04
  TRACK 19 AUDIO
    TITLE "3:cjc173_2589"
    INDEX 01 00:30:49
  TRACK 20 AUDIO
    TITLE "0:"
    INDEX 01 00:31:64
  TRACK 21 AUDIO
    TITLE "4:cjc173_2590"
    INDEX 01 00:32:10
  TRACK 22 AUDIO
    TITLE "0:"
    INDEX 01 00:35:20
  TRACK 23 AUDIO
    TITLE "5:cjc173_2591"
    INDEX 01 00:35:42
  TRACK 24 AUDIO
    TITLE "0:"
    INDEX 01 00:39:67
  TRACK 25 AUDIO
    TITLE "3:cjc173_2592"
    INDEX 01 00:40:39
  TRACK 26 AUDIO
    TITLE "0:"
    INDEX 01 00:41:62
  TRACK 27 AUDIO
    TITLE "4:cjc173_2593"
    INDEX 01 00:42:09
  TRACK 28 AUDIO
    TITLE "0:"
    INDEX 01 00:47:02
  TRACK 29 AUDIO
    TITLE "5:cjc173_2594"
    INDEX 01 00:47:22
  TRACK 30 AUDIO
    TITLE "0:"
    INDEX 01 00:51:70
  TRACK 31 AUDIO
    TITLE "3:cjc173_2595"
    INDEX 01 00:52:42
  TRACK 32 AUDIO
    TITLE "0:"
    INDEX 01 00:53:69
  TRACK 33 AUDIO
    TITLE "4:cjc173_2596"
    INDEX 01 00:54:14
  TRACK 34 AUDIO
    TITLE "0:"
    INDEX 01 00:55:58
  TRACK 35 AUDIO
    TITLE "5:cjc173_2597"
    INDEX 01 00:56:09
  TRACK 36 AUDIO
    TITLE "0:"
    INDEX 01 01:00:48
  TRACK 37 AUDIO
    TITLE "3:cjc173_2598"
    INDEX 01 01:01:20
  TRACK 38 AUDIO
    TITLE "0:"
    INDEX 01 01:02:29
  TRACK 39 AUDIO
    TITLE "4:cjc173_2599"
    INDEX 01 01:02:51
  TRACK 40 AUDIO
    TITLE "0:"
    INDEX 01 01:07:24
  TRACK 41 AUDIO
    TITLE "5:cjc173_2600"
    INDEX 01 01:07:44
  TRACK 42 AUDIO
    TITLE "0:"
    INDEX 01 01:12:00
  TRACK 43 AUDIO
    TITLE "3:cjc173_2601"
    INDEX 01 01:12:49
  TRACK 44 AUDIO
    TITLE "0:"
    INDEX 01 01:14:09
  TRACK 45 AUDIO
    TITLE "4:cjc173_2602"
    INDEX 01 01:14:32
  TRACK 46 AUDIO
    TITLE "0:"
    INDEX 01 01:15:45
  TRACK 47 AUDIO
    TITLE "5:cjc173_2603"
    INDEX 01 01:15:65
  TRACK 48 AUDIO
    TITLE "0:"
    INDEX 01 01:20:31
  TRACK 49 AUDIO
    TITLE "3:cjc173_2604"
    INDEX 01 01:21:03
  TRACK 50 AUDIO
    TITLE "0:"
    INDEX 01 01:22:24
  TRACK 51 AUDIO
    TITLE "4:cjc173_2605"
    INDEX 01 01:22:45
  TRACK 52 AUDIO
    TITLE "0:"
    INDEX 01 01:25:38
  TRACK 53 AUDIO
    TITLE "5:cjc173_2606"
    INDEX 01 01:25:58
  TRACK 54 AUDIO
    TITLE "0:"
    INDEX 01 01:30:47
  TRACK 55 AUDIO
    TITLE "3:cjc173_2607"
    INDEX 01 01:31:19
  TRACK 56 AUDIO
    TITLE "0:"
    INDEX 01 01:32:22
  TRACK 57 AUDIO
    TITLE "4:cjc173_2608"
    INDEX 01 01:32:42
  TRACK 58 AUDIO
    TITLE "0:"
    INDEX 01 01:35:27
  TRACK 59 AUDIO
    TITLE "5:cjc173_2609"
    INDEX 01 01:35:46
  TRACK 60 AUDIO
    TITLE "0:"
    INDEX 01 01:40:61
